<mxfile host="app.diagrams.net" modified="2024-05-21T09:41:19.162Z" agent="Mozilla/5.0 (Macintosh; Intel Mac OS X 10_15_7) AppleWebKit/537.36 (KHTML, like Gecko) Chrome/125.0.0.0 Safari/537.36" etag="G6fhA1o-4rNiueEdMBdH" version="24.3.0" type="device">
  <diagram name="Page-1" id="xp30SCSEOxwQPhzISOvE">
    <mxGraphModel dx="1194" dy="678" grid="1" gridSize="10" guides="0" tooltips="1" connect="1" arrows="1" fold="1" page="1" pageScale="1" pageWidth="827" pageHeight="1169" math="0" shadow="0">
      <root>
        <mxCell id="0" />
        <mxCell id="1" parent="0" />
        <mxCell id="OPuG-rGd3lABJJKjpJ5O-2" value="&lt;font style=&quot;font-size: 14px;&quot;&gt;Spring application&lt;/font&gt;" style="swimlane;horizontal=0;whiteSpace=wrap;html=1;fillColor=#f5f5f5;strokeColor=#666666;fontColor=#333333;" vertex="1" parent="1">
          <mxGeometry x="194" y="120" width="696" height="414" as="geometry">
            <mxRectangle x="260" y="370" width="40" height="140" as="alternateBounds" />
          </mxGeometry>
        </mxCell>
        <mxCell id="OPuG-rGd3lABJJKjpJ5O-3" value="&lt;font style=&quot;font-size: 14px;&quot;&gt;Controller&lt;/font&gt;" style="swimlane;horizontal=0;whiteSpace=wrap;html=1;fillColor=#fff2cc;strokeColor=#d6b656;" vertex="1" parent="OPuG-rGd3lABJJKjpJ5O-2">
          <mxGeometry x="36" y="30" width="644" height="100" as="geometry" />
        </mxCell>
        <mxCell id="OPuG-rGd3lABJJKjpJ5O-16" value="&lt;div&gt;&lt;font style=&quot;font-size: 14px;&quot;&gt;&quot;Controller&quot;&lt;/font&gt;&lt;/div&gt;&lt;font style=&quot;font-size: 14px;&quot;&gt;UserController&lt;/font&gt;" style="rounded=0;whiteSpace=wrap;html=1;fillColor=#fff2cc;strokeColor=#d6b656;" vertex="1" parent="OPuG-rGd3lABJJKjpJ5O-3">
          <mxGeometry x="40" y="20" width="120" height="60" as="geometry" />
        </mxCell>
        <mxCell id="OPuG-rGd3lABJJKjpJ5O-17" value="&lt;div style=&quot;font-size: 14px;&quot;&gt;&lt;font style=&quot;font-size: 14px;&quot;&gt;&quot;Controller&quot;&lt;/font&gt;&lt;/div&gt;&lt;font style=&quot;font-size: 14px;&quot;&gt;CardController&lt;/font&gt;" style="rounded=0;whiteSpace=wrap;html=1;fillColor=#fff2cc;strokeColor=#d6b656;" vertex="1" parent="OPuG-rGd3lABJJKjpJ5O-3">
          <mxGeometry x="180" y="20" width="120" height="60" as="geometry" />
        </mxCell>
        <mxCell id="OPuG-rGd3lABJJKjpJ5O-18" value="" style="rounded=0;whiteSpace=wrap;html=1;fillColor=#fff2cc;strokeColor=#d6b656;" vertex="1" parent="OPuG-rGd3lABJJKjpJ5O-3">
          <mxGeometry x="320" y="20" width="120" height="60" as="geometry" />
        </mxCell>
        <mxCell id="OPuG-rGd3lABJJKjpJ5O-19" value="" style="rounded=0;whiteSpace=wrap;html=1;fillColor=#fff2cc;strokeColor=#d6b656;" vertex="1" parent="OPuG-rGd3lABJJKjpJ5O-3">
          <mxGeometry x="460" y="20" width="120" height="60" as="geometry" />
        </mxCell>
        <mxCell id="OPuG-rGd3lABJJKjpJ5O-4" value="&lt;font style=&quot;font-size: 14px;&quot;&gt;Service&lt;/font&gt;" style="swimlane;horizontal=0;whiteSpace=wrap;html=1;fillColor=#dae8fc;strokeColor=#6c8ebf;" vertex="1" parent="OPuG-rGd3lABJJKjpJ5O-2">
          <mxGeometry x="36" y="155" width="644" height="219" as="geometry" />
        </mxCell>
        <mxCell id="OPuG-rGd3lABJJKjpJ5O-10" value="&lt;div&gt;&lt;font style=&quot;font-size: 14px;&quot;&gt;&quot;Service&quot;&lt;/font&gt;&lt;/div&gt;&lt;font style=&quot;font-size: 14px;&quot;&gt;UserManager&lt;/font&gt;" style="rounded=0;whiteSpace=wrap;html=1;fillColor=#dae8fc;strokeColor=#6c8ebf;" vertex="1" parent="OPuG-rGd3lABJJKjpJ5O-4">
          <mxGeometry x="40" y="20" width="120" height="60" as="geometry" />
        </mxCell>
        <mxCell id="OPuG-rGd3lABJJKjpJ5O-11" value="&lt;div&gt;&quot;Service&quot;&lt;/div&gt;CardManager" style="rounded=0;whiteSpace=wrap;html=1;fillColor=#dae8fc;strokeColor=#6c8ebf;" vertex="1" parent="OPuG-rGd3lABJJKjpJ5O-4">
          <mxGeometry x="180" y="20" width="120" height="60" as="geometry" />
        </mxCell>
        <mxCell id="OPuG-rGd3lABJJKjpJ5O-12" value="" style="rounded=0;whiteSpace=wrap;html=1;fillColor=#dae8fc;strokeColor=#6c8ebf;" vertex="1" parent="OPuG-rGd3lABJJKjpJ5O-4">
          <mxGeometry x="320" y="20" width="120" height="60" as="geometry" />
        </mxCell>
        <mxCell id="OPuG-rGd3lABJJKjpJ5O-14" value="" style="rounded=0;whiteSpace=wrap;html=1;fillColor=#dae8fc;strokeColor=#6c8ebf;" vertex="1" parent="OPuG-rGd3lABJJKjpJ5O-4">
          <mxGeometry x="460" y="20" width="120" height="60" as="geometry" />
        </mxCell>
        <mxCell id="OPuG-rGd3lABJJKjpJ5O-5" value="&lt;font style=&quot;font-size: 14px;&quot;&gt;Repository&lt;/font&gt;" style="swimlane;horizontal=0;whiteSpace=wrap;html=1;fillColor=#f8cecc;strokeColor=#b85450;" vertex="1" parent="OPuG-rGd3lABJJKjpJ5O-2">
          <mxGeometry x="36" y="280" width="644" height="100" as="geometry" />
        </mxCell>
        <mxCell id="OPuG-rGd3lABJJKjpJ5O-6" value="&lt;div&gt;&lt;font style=&quot;font-size: 14px;&quot;&gt;&quot;DAO&quot;&lt;/font&gt;&lt;/div&gt;&lt;font style=&quot;font-size: 14px;&quot;&gt;UserRepository&lt;/font&gt;" style="rounded=0;whiteSpace=wrap;html=1;fillColor=#f8cecc;strokeColor=#b85450;" vertex="1" parent="OPuG-rGd3lABJJKjpJ5O-5">
          <mxGeometry x="40" y="20" width="120" height="60" as="geometry" />
        </mxCell>
        <mxCell id="OPuG-rGd3lABJJKjpJ5O-7" value="&lt;div&gt;&lt;font style=&quot;font-size: 14px;&quot;&gt;&quot;DAO&quot;&lt;/font&gt;&lt;/div&gt;&lt;font style=&quot;font-size: 14px;&quot;&gt;CardRepository&lt;/font&gt;" style="rounded=0;whiteSpace=wrap;html=1;fillColor=#f8cecc;strokeColor=#b85450;" vertex="1" parent="OPuG-rGd3lABJJKjpJ5O-5">
          <mxGeometry x="180" y="20" width="120" height="60" as="geometry" />
        </mxCell>
        <mxCell id="OPuG-rGd3lABJJKjpJ5O-13" value="" style="rounded=0;whiteSpace=wrap;html=1;fillColor=#f8cecc;strokeColor=#b85450;" vertex="1" parent="OPuG-rGd3lABJJKjpJ5O-5">
          <mxGeometry x="320" y="20" width="120" height="60" as="geometry" />
        </mxCell>
        <mxCell id="OPuG-rGd3lABJJKjpJ5O-15" value="" style="rounded=0;whiteSpace=wrap;html=1;fillColor=#f8cecc;strokeColor=#b85450;" vertex="1" parent="OPuG-rGd3lABJJKjpJ5O-5">
          <mxGeometry x="460" y="20" width="120" height="60" as="geometry" />
        </mxCell>
        <mxCell id="OPuG-rGd3lABJJKjpJ5O-33" style="edgeStyle=orthogonalEdgeStyle;rounded=0;orthogonalLoop=1;jettySize=auto;html=1;exitX=0.5;exitY=1;exitDx=0;exitDy=0;entryX=0.5;entryY=0;entryDx=0;entryDy=0;" edge="1" parent="OPuG-rGd3lABJJKjpJ5O-2" source="OPuG-rGd3lABJJKjpJ5O-16" target="OPuG-rGd3lABJJKjpJ5O-10">
          <mxGeometry relative="1" as="geometry" />
        </mxCell>
        <mxCell id="OPuG-rGd3lABJJKjpJ5O-35" value="&lt;font style=&quot;font-size: 14px;&quot;&gt;&lt;i&gt;addUser()&lt;/i&gt;&lt;/font&gt;" style="edgeLabel;html=1;align=center;verticalAlign=middle;resizable=0;points=[];" vertex="1" connectable="0" parent="OPuG-rGd3lABJJKjpJ5O-33">
          <mxGeometry x="-0.2306" y="3" relative="1" as="geometry">
            <mxPoint x="37" y="5" as="offset" />
          </mxGeometry>
        </mxCell>
        <mxCell id="OPuG-rGd3lABJJKjpJ5O-36" style="edgeStyle=orthogonalEdgeStyle;rounded=0;orthogonalLoop=1;jettySize=auto;html=1;exitX=0.5;exitY=1;exitDx=0;exitDy=0;entryX=0.5;entryY=0;entryDx=0;entryDy=0;" edge="1" parent="OPuG-rGd3lABJJKjpJ5O-2" source="OPuG-rGd3lABJJKjpJ5O-10" target="OPuG-rGd3lABJJKjpJ5O-6">
          <mxGeometry relative="1" as="geometry" />
        </mxCell>
        <mxCell id="OPuG-rGd3lABJJKjpJ5O-37" value="&lt;font style=&quot;font-size: 14px;&quot;&gt;&lt;i&gt;user.save()&lt;/i&gt;&lt;/font&gt;" style="edgeLabel;html=1;align=center;verticalAlign=middle;resizable=0;points=[];" vertex="1" connectable="0" parent="OPuG-rGd3lABJJKjpJ5O-2">
          <mxGeometry x="186" y="270" as="geometry" />
        </mxCell>
        <mxCell id="OPuG-rGd3lABJJKjpJ5O-40" value="" style="ellipse;whiteSpace=wrap;html=1;aspect=fixed;fillColor=none;dashed=1;dashPattern=12 12;" vertex="1" parent="OPuG-rGd3lABJJKjpJ5O-2">
          <mxGeometry x="66" y="65" width="284" height="284" as="geometry" />
        </mxCell>
        <mxCell id="OPuG-rGd3lABJJKjpJ5O-45" value="&lt;font style=&quot;font-size: 16px;&quot;&gt;2&lt;/font&gt;" style="ellipse;whiteSpace=wrap;html=1;aspect=fixed;strokeColor=default;align=center;verticalAlign=middle;fontFamily=Helvetica;fontSize=12;fontColor=default;fillColor=#FFFF33;" vertex="1" parent="OPuG-rGd3lABJJKjpJ5O-2">
          <mxGeometry x="226" y="125" width="30" height="30" as="geometry" />
        </mxCell>
        <mxCell id="OPuG-rGd3lABJJKjpJ5O-46" value="&lt;span style=&quot;font-size: 16px;&quot;&gt;3&lt;/span&gt;" style="ellipse;whiteSpace=wrap;html=1;aspect=fixed;strokeColor=default;align=center;verticalAlign=middle;fontFamily=Helvetica;fontSize=12;fontColor=default;fillColor=#FFFF33;" vertex="1" parent="OPuG-rGd3lABJJKjpJ5O-2">
          <mxGeometry x="86" y="250" width="30" height="30" as="geometry" />
        </mxCell>
        <mxCell id="OPuG-rGd3lABJJKjpJ5O-32" style="edgeStyle=orthogonalEdgeStyle;rounded=0;orthogonalLoop=1;jettySize=auto;html=1;entryX=0.5;entryY=0;entryDx=0;entryDy=0;" edge="1" parent="1" source="OPuG-rGd3lABJJKjpJ5O-24" target="OPuG-rGd3lABJJKjpJ5O-16">
          <mxGeometry relative="1" as="geometry" />
        </mxCell>
        <mxCell id="OPuG-rGd3lABJJKjpJ5O-34" value="&lt;div&gt;&lt;font style=&quot;font-size: 14px;&quot;&gt;&lt;i&gt;HTTP&lt;/i&gt;&lt;/font&gt;&lt;/div&gt;&lt;font style=&quot;font-size: 14px;&quot;&gt;&lt;i&gt;POST /user&lt;/i&gt;&lt;/font&gt;" style="edgeLabel;html=1;align=center;verticalAlign=middle;resizable=0;points=[];" vertex="1" connectable="0" parent="OPuG-rGd3lABJJKjpJ5O-32">
          <mxGeometry x="0.4342" y="1" relative="1" as="geometry">
            <mxPoint x="49" as="offset" />
          </mxGeometry>
        </mxCell>
        <mxCell id="OPuG-rGd3lABJJKjpJ5O-24" value="&lt;font style=&quot;font-size: 14px;&quot;&gt;Client&lt;/font&gt;" style="shape=umlActor;verticalLabelPosition=bottom;verticalAlign=top;html=1;outlineConnect=0;" vertex="1" parent="1">
          <mxGeometry x="520" y="10" width="30" height="60" as="geometry" />
        </mxCell>
        <mxCell id="OPuG-rGd3lABJJKjpJ5O-27" value="" style="shape=cylinder3;whiteSpace=wrap;html=1;boundedLbl=1;backgroundOutline=1;size=15;dashed=1;dashPattern=12 12;fillColor=#e1d5e7;strokeColor=#9673a6;" vertex="1" parent="1">
          <mxGeometry x="485" y="550" width="75" height="110" as="geometry" />
        </mxCell>
        <mxCell id="OPuG-rGd3lABJJKjpJ5O-28" value="&lt;div&gt;&lt;font style=&quot;font-size: 14px;&quot;&gt;&quot;Persistence&quot;&lt;/font&gt;&lt;/div&gt;&lt;font style=&quot;font-size: 14px;&quot;&gt;Database&lt;/font&gt;" style="text;html=1;align=center;verticalAlign=middle;whiteSpace=wrap;rounded=0;" vertex="1" parent="1">
          <mxGeometry x="458.75" y="670" width="127.5" height="30" as="geometry" />
        </mxCell>
        <mxCell id="OPuG-rGd3lABJJKjpJ5O-38" style="edgeStyle=orthogonalEdgeStyle;rounded=0;orthogonalLoop=1;jettySize=auto;html=1;exitX=0.5;exitY=1;exitDx=0;exitDy=0;entryX=0;entryY=0.5;entryDx=0;entryDy=0;entryPerimeter=0;" edge="1" parent="1" source="OPuG-rGd3lABJJKjpJ5O-6" target="OPuG-rGd3lABJJKjpJ5O-27">
          <mxGeometry relative="1" as="geometry" />
        </mxCell>
        <mxCell id="OPuG-rGd3lABJJKjpJ5O-39" value="&lt;font style=&quot;font-size: 14px;&quot;&gt;&lt;i&gt;Write&lt;/i&gt;&lt;/font&gt;" style="edgeLabel;html=1;align=center;verticalAlign=middle;resizable=0;points=[];" vertex="1" connectable="0" parent="OPuG-rGd3lABJJKjpJ5O-38">
          <mxGeometry x="0.1311" y="1" relative="1" as="geometry">
            <mxPoint x="-9" y="16" as="offset" />
          </mxGeometry>
        </mxCell>
        <mxCell id="OPuG-rGd3lABJJKjpJ5O-42" value="" style="shape=image;verticalLabelPosition=bottom;labelBackgroundColor=default;verticalAlign=top;aspect=fixed;imageAspect=0;image=https://upload.wikimedia.org/wikipedia/commons/thumb/9/99/Unofficial_JavaScript_logo_2.svg/1200px-Unofficial_JavaScript_logo_2.svg.png;" vertex="1" parent="1">
          <mxGeometry x="580" y="60" width="30" height="30" as="geometry" />
        </mxCell>
        <mxCell id="OPuG-rGd3lABJJKjpJ5O-43" value="" style="shape=image;verticalLabelPosition=bottom;labelBackgroundColor=default;verticalAlign=top;aspect=fixed;imageAspect=0;image=https://ureachus.com/wp-content/uploads/2023/09/1_lJ32Bl-lHWmNMUSiSq17gQ.png;" vertex="1" parent="1">
          <mxGeometry x="575" y="24.55" width="40" height="30.91" as="geometry" />
        </mxCell>
        <mxCell id="OPuG-rGd3lABJJKjpJ5O-44" value="&lt;font style=&quot;font-size: 16px;&quot;&gt;1&lt;/font&gt;" style="ellipse;whiteSpace=wrap;html=1;aspect=fixed;strokeColor=default;align=center;verticalAlign=middle;fontFamily=Helvetica;fontSize=12;fontColor=default;fillColor=#FFFF33;" vertex="1" parent="1">
          <mxGeometry x="270" y="60" width="30" height="30" as="geometry" />
        </mxCell>
        <mxCell id="OPuG-rGd3lABJJKjpJ5O-47" value="&lt;span style=&quot;font-size: 16px;&quot;&gt;4&lt;/span&gt;" style="ellipse;whiteSpace=wrap;html=1;aspect=fixed;strokeColor=default;align=center;verticalAlign=middle;fontFamily=Helvetica;fontSize=12;fontColor=default;fillColor=#FFFF33;" vertex="1" parent="1">
          <mxGeometry x="360" y="555" width="30" height="30" as="geometry" />
        </mxCell>
        <mxCell id="OPuG-rGd3lABJJKjpJ5O-48" value="" style="shape=image;verticalLabelPosition=bottom;labelBackgroundColor=default;verticalAlign=top;aspect=fixed;imageAspect=0;image=https://static-00.iconduck.com/assets.00/spring-icon-2048x2045-yufnoc34.png;" vertex="1" parent="1">
          <mxGeometry x="840" y="70" width="80" height="79.87" as="geometry" />
        </mxCell>
      </root>
    </mxGraphModel>
  </diagram>
</mxfile>
